#N canvas 340 63 450 300 10;
#X declare -lib mrpeach;
#X obj 37 22 import mrpeach;
#X obj 36 54 udpreceive 12000;
#X obj 36 81 unpackOSC;
#X obj 31 124 routeOSC /fromArd;
#X obj 32 166 unpack f f f;
#X obj 45 224 noteout;
#X connect 1 0 2 0;
#X connect 2 0 3 0;
#X connect 3 0 4 0;
#X connect 4 1 5 0;
#X connect 4 2 5 1;
