#N canvas 325 52 837 665 10;
#X declare -lib mrpeach;
#X obj 109 22 import mrpeach;
#X obj 108 54 udpreceive 12000;
#X obj 108 81 unpackOSC;
#X obj 92 206 route 1 2 3 4 5 6 7 8;
#X obj 120 524 *~;
#X obj 94 648 dac~;
#X obj 224 358 tone;
#X obj 128 452 expr~ $v1+$v2+$v3+$v4+$v5+$v6+$v7+$v8;
#X obj 90 119 routeOSC /fromArd;
#X obj 108 290 tone;
#X obj 60 345 tone;
#X obj 85 318 tone;
#X obj 143 315 tone;
#X obj 182 337 tone;
#X obj 267 372 tone;
#X obj 319 385 tone;
#X obj 27 395 vsl 15 90 0 1 0 0 empty empty amp 0 -9 0 10 -204786 -1
-1 6700 1;
#X connect 1 0 2 0;
#X connect 2 0 8 0;
#X connect 3 0 10 0;
#X connect 3 1 11 0;
#X connect 3 2 9 0;
#X connect 3 3 12 0;
#X connect 3 4 13 0;
#X connect 3 5 6 0;
#X connect 3 6 14 0;
#X connect 3 7 15 0;
#X connect 4 0 5 0;
#X connect 4 0 5 1;
#X connect 6 0 7 5;
#X connect 7 0 4 1;
#X connect 8 0 3 0;
#X connect 9 0 7 2;
#X connect 10 0 7 0;
#X connect 11 0 7 1;
#X connect 12 0 7 3;
#X connect 13 0 7 4;
#X connect 14 0 7 6;
#X connect 15 0 7 7;
#X connect 16 0 4 0;
