#N canvas 691 85 631 403 10;
#X text 106 -17 http://anthonymattox.com/creating-a-polyphonic-synthesizer-in-pure-data
;
#X obj 55 24 unpack 0 0;
#X obj 42 79 mtof~;
#X obj 105 63 select 0;
#X obj 21 160 osc~;
#X msg 244 171 0 300;
#X obj 144 211 vline~;
#X obj 227 96 bng 15 250 50 0 empty empty release 17 7 0 10 -262144
-1 -1;
#X obj 92 99 bng 15 250 50 0 empty empty attack 17 7 0 10 -262144 -1
-1;
#X msg 52 123 0;
#X obj 68 246 *~;
#X text 232 242 up/down target time(0 default) initdelay(0 default)
;
#X text 292 194 100% in 200 millis \, delay 200ms and then drop down
to 20% over 1s;
#X obj 40 -21 inlet;
#X obj 66 293 outlet~;
#X msg 113 173 1 200 \, 0.2 500 200;
#X connect 1 0 2 0;
#X connect 1 1 3 0;
#X connect 2 0 4 0;
#X connect 3 0 7 0;
#X connect 3 1 8 0;
#X connect 4 0 10 0;
#X connect 5 0 6 0;
#X connect 6 0 10 1;
#X connect 7 0 5 0;
#X connect 8 0 9 0;
#X connect 8 0 15 0;
#X connect 9 0 4 1;
#X connect 10 0 14 0;
#X connect 13 0 1 0;
#X connect 15 0 6 0;
